# xmcd
#
# Track frame offsets:
#	150
#	17020
#	34435
#	47153
#	63194
#	82055
#	101105
#	118127
#	131916
#	146430
#	162780
#	178439
#	191953
#	210085
#	228684
#	243424
#	257594
#	276722
#
# Disc length: 3935 seconds
#
# Revision: 1
# Processed by: cddbd v1.5.2PL0 Copyright (c) Steve Scherf et al.
# Submitted via: audiograbber 1.83.01
#
DISCID=180f5d12
DTITLE=Talvehitt 2006 - Talvehitt 2006
DYEAR=2005
DGENRE=Pop
TTITLE0=Moon Taxi - Moonwalk
TTITLE1=Dynamint - Öine Tee
TTITLE2=Tanel Padar and The Sun - Kuu On Päike
TTITLE3=Bläcky - Ingel (J&M Remix)
TTITLE4=Hellad Velled - 18
TTITLE5=Electronic Crew - Sest Meile Meeldib
TTITLE6=Run A Way - Vaba Lind
TTITLE7=Sõpruse Puiestee - Kuused, Kuused
TTITLE8=Slide-Fifty - Fortune
TTITLE9=Dreamland - Way To Your Heart
TTITLE10=Mr. Happyman - Lendaval Vaibal
TTITLE11=Blind - Go-Go Boots
TTITLE12=2 Wild - Kas Üksi Jään
TTITLE13=N-Joy - Öös On Leegid
TTITLE14=Marco - Las Lendlevad Soovid Tuules
TTITLE15=Pixie Twins - Üksikute Baar
TTITLE16=KX Project feat. Kaido Sapas - Sa Ööd Kõik Säravaks Muudad
TTITLE17=Ly Lumiste - Liiga Hea
EXTD=
EXTT0=
EXTT1=
EXTT2=
EXTT3=
EXTT4=
EXTT5=
EXTT6=
EXTT7=
EXTT8=
EXTT9=
EXTT10=
EXTT11=
EXTT12=
EXTT13=
EXTT14=
EXTT15=
EXTT16=
EXTT17=
PLAYORDER=
